<?xml version="1.0" encoding="utf-8"?>
<!-- Generator: Adobe Illustrator 26.4.1, SVG Export Plug-In . SVG Version: 6.00 Build 0)  -->
<svg version="1.1" xmlns="http://www.w3.org/2000/svg" xmlns:xlink="http://www.w3.org/1999/xlink" x="0px" y="0px"
	 viewBox="0 0 2564.9 2563.9" style="enable-background:new 0 0 2564.9 2563.9;" xml:space="preserve">
<style type="text/css">
	.st0{stroke:#00FF04;stroke-miterlimit:10;}
	.st1{fill:#FF6600;stroke:#00FF04;stroke-miterlimit:10;}
	.st2{fill:#FF0000;stroke:#00FF04;stroke-miterlimit:10;}
	.st3{fill:#00CC00;stroke:#00FF04;stroke-miterlimit:10;}
	.st4{fill:#3300FF;stroke:#00FF04;stroke-miterlimit:10;}
	.st5{fill:#1B88FF;stroke:#00FF04;stroke-miterlimit:10;}
	.st6{fill:none;}
	.st7{fill:#FFFFFF;}
</style>
<g id="Background">
	<path class="st0" d="M2159,2528.5H416.9c-204.4,0-370.1-165.7-370.1-370.1V416.3c0-204.4,165.7-370.1,370.1-370.1H2159
		c204.4,0,370.1,165.7,370.1,370.1v1742.1C2529.1,2362.8,2363.4,2528.5,2159,2528.5z"/>
</g>
<g id="Orange">
	<path class="st1" d="M939.2,1258.5H549.5c-176.6,0-319.8-143.2-319.8-319.8V549.1c0-176.6,143.2-319.8,319.8-319.8h389.7
		c176.6,0,319.8,143.2,319.8,319.8v389.7C1259,1115.4,1115.8,1258.5,939.2,1258.5z"/>
</g>
<g id="Red">
	<path class="st2" d="M2027.4,1232.9h-389.7c-176.6,0-319.8-143.2-319.8-319.8V523.5c0-176.6,143.2-319.8,319.8-319.8h389.7
		c176.6,0,319.8,143.2,319.8,319.8v389.7C2347.1,1089.8,2204,1232.9,2027.4,1232.9z"/>
</g>
<g id="Green">
	<path class="st3" d="M2047.7,2355.5H1658c-176.6,0-319.8-143.2-319.8-319.8v-389.7c0-176.6,143.2-319.8,319.8-319.8h389.7
		c176.6,0,319.8,143.2,319.8,319.8v389.7C2367.4,2212.4,2224.3,2355.5,2047.7,2355.5z"/>
</g>
<g id="Blue">
	<path class="st4" d="M939.2,2355.5H549.5c-176.6,0-319.8-143.2-319.8-319.8v-389.7c0-176.6,143.2-319.8,319.8-319.8h389.7
		c176.6,0,319.8,143.2,319.8,319.8v389.7C1259,2212.4,1115.8,2355.5,939.2,2355.5z"/>
</g>
<g id="AppColor">
	<path class="st5" d="M1003.8,2431.1l-869.4-869.4c-154.6-154.6-154.6-405.4,0-560l869.4-869.4c154.6-154.6,405.4-154.6,560,0
		l869.4,869.4c154.6,154.6,154.6,405.4,0,560l-869.4,869.4C1409.2,2585.7,1158.5,2585.7,1003.8,2431.1z"/>
</g>
<g id="Text">
	<g>
		<rect x="20.1" class="st6" width="2549.3" height="2541.7"/>
		<path class="st7" d="M1161.5,969.6h-205V1644c0,38.8-8.6,67.7-25.9,86.4c-17.3,18.8-39.6,28.2-67,28.2c-27.8,0-50.4-9.5-67.9-28.5
			c-17.5-19-26.2-47.7-26.2-86.1V969.6h-205c-32.1,0-55.9-7.1-71.5-21.2s-23.4-32.8-23.4-56c0-24,8.1-43,24.4-56.9
			c16.2-13.9,39.8-20.9,70.6-20.9h597.1c32.5,0,56.6,7.2,72.5,21.5s23.7,33.1,23.7,56.3c0,23.2-8,41.9-24,56
			S1193.6,969.6,1161.5,969.6z"/>
		<path class="st7" d="M2073.5,1464c0,56.2-14.4,106.6-43.3,151.4s-71.1,79.8-126.8,105.2c-55.6,25.3-121.6,38-197.9,38
			c-91.5,0-166.9-17.3-226.4-51.9c-42.2-24.9-76.5-58.2-102.8-99.8c-26.4-41.6-39.5-82-39.5-121.3c0-22.8,7.9-42.3,23.7-58.6
			s36-24.4,60.4-24.4c19.8,0,36.6,6.3,50.3,19c13.7,12.7,25.4,31.5,35.1,56.4c11.8,29.6,24.6,54.3,38.3,74.2
			c13.7,19.9,33,36.2,57.9,49.1c24.9,12.9,57.6,19.3,98.1,19.3c55.7,0,100.9-13,135.7-39c34.8-26,52.2-58.4,52.2-97.3
			c0-30.8-9.4-55.9-28.2-75.1c-18.8-19.2-43-33.9-72.8-44s-69.5-20.9-119.2-32.3c-66.7-15.6-122.4-33.9-167.4-54.8
			c-44.9-20.9-80.6-49.4-106.9-85.5c-26.4-36.1-39.5-80.9-39.5-134.5c0-51,13.9-96.4,41.7-136.1c27.8-39.7,68.1-70.2,120.8-91.5
			s114.7-32,185.9-32c56.9,0,106.1,7.1,147.7,21.2s76,32.9,103.4,56.3c27.4,23.4,47.4,48,60.1,73.7s19,50.8,19,75.2
			c0,22.3-7.9,42.5-23.7,60.4c-15.8,17.9-35.5,26.9-59,26.9c-21.5,0-37.8-5.3-49-16.1c-11.2-10.7-23.3-28.2-36.3-52.6
			c-16.9-35.2-37.1-62.7-60.8-82.4c-23.6-19.7-61.6-29.6-113.9-29.6c-48.5,0-87.6,10.7-117.4,32s-44.6,47-44.6,77
			c0,18.6,5.1,34.7,15.2,48.2c10.1,13.5,24,25.1,41.8,34.9s35.6,17.3,53.8,22.8c18.1,5.5,48.1,13.5,89.8,24.1
			c52.2,12.2,99.5,25.8,141.9,40.6c42.3,14.8,78.4,32.8,108.1,53.9s52.9,47.9,69.5,80.2C2065.2,1377.5,2073.5,1417.1,2073.5,1464z"
			/>
	</g>
</g>
</svg>
